<svg width="17" height="16" viewBox="0 0 17 16" fill="none" xmlns="http://www.w3.org/2000/svg">
<path fill-rule="evenodd" clip-rule="evenodd" d="M13.1667 2.66669C12.8 2.66669 12.5 2.96669 12.5 3.33335V13.3334C12.5 13.7 12.8 14 13.1667 14C13.5333 14 13.8333 13.7 13.8333 13.3334V3.33335C13.8333 2.96669 13.5333 2.66669 13.1667 2.66669ZM8.49999 5.33335C8.13332 5.33335 7.83332 5.63335 7.83332 6.00002V13.3334C7.83332 13.7 8.13332 14 8.49999 14C8.86666 14 9.16666 13.7 9.16666 13.3334V6.00002C9.16666 5.63335 8.86666 5.33335 8.49999 5.33335ZM3.16666 8.66669C3.16666 8.30002 3.46666 8.00002 3.83332 8.00002C4.19999 8.00002 4.49999 8.30002 4.49999 8.66669V13.3334C4.49999 13.7 4.19999 14 3.83332 14C3.46666 14 3.16666 13.7 3.16666 13.3334V8.66669Z" fill="#8D8D9D"/>
<mask id="mask0" mask-type="alpha" maskUnits="userSpaceOnUse" x="3" y="2" width="11" height="12">
<path fill-rule="evenodd" clip-rule="evenodd" d="M13.1667 2.66669C12.8 2.66669 12.5 2.96669 12.5 3.33335V13.3334C12.5 13.7 12.8 14 13.1667 14C13.5333 14 13.8333 13.7 13.8333 13.3334V3.33335C13.8333 2.96669 13.5333 2.66669 13.1667 2.66669ZM8.49999 5.33335C8.13332 5.33335 7.83332 5.63335 7.83332 6.00002V13.3334C7.83332 13.7 8.13332 14 8.49999 14C8.86666 14 9.16666 13.7 9.16666 13.3334V6.00002C9.16666 5.63335 8.86666 5.33335 8.49999 5.33335ZM3.16666 8.66669C3.16666 8.30002 3.46666 8.00002 3.83332 8.00002C4.19999 8.00002 4.49999 8.30002 4.49999 8.66669V13.3334C4.49999 13.7 4.19999 14 3.83332 14C3.46666 14 3.16666 13.7 3.16666 13.3334V8.66669Z" fill="white"/>
</mask>
<g mask="url(#mask0)">
<rect x="0.5" width="16" height="16" fill="#8D8D9D"/>
</g>
</svg>
