<svg width="40" height="40" viewBox="0 0 40 40" fill="none" xmlns="http://www.w3.org/2000/svg">
<path d="M16.427 38.3334C15.0833 38.3334 13.8124 37.5105 13.3124 36.1876L7.87494 22.8126L9.4166 22.1876L14.8645 35.573C15.1978 36.448 16.1666 36.8855 17.0208 36.5522L18.927 35.823C19.3437 35.6667 19.677 35.3542 19.8541 34.948C20.0416 34.5417 20.052 34.0938 19.8958 33.6772L15.3958 22.8126L16.9374 22.1772L21.4478 33.0626C21.7708 33.9167 21.7499 34.823 21.3853 35.6355C21.0208 36.448 20.3645 37.073 19.5312 37.3855L17.6249 38.1147C17.2187 38.2605 16.8228 38.3334 16.427 38.3334Z" fill="#8D8D9D"/>
<path d="M34.1667 31.8645L20.1042 23.3333H8.74999C4.84374 23.3333 1.66666 20.1562 1.66666 16.2499C1.66666 12.3437 4.84374 9.1666 8.74999 9.1666H20.1042L34.1667 0.635345V31.8645ZM8.74999 10.8333C5.76041 10.8333 3.33332 13.2603 3.33332 16.2499C3.33332 19.2395 5.76041 21.6666 8.74999 21.6666H20.5729L32.5 28.9062V3.59368L20.5729 10.8333H8.74999Z" fill="#8D8D9D"/>
<path d="M33.3333 21.0106V19.3439C35.1667 19.3439 36.6667 17.771 36.6667 15.8335C36.6667 13.896 35.1667 12.3231 33.3333 12.3231V10.6564C36.0938 10.6564 38.3333 12.9793 38.3333 15.8335C38.3333 18.6877 36.0938 21.0106 33.3333 21.0106Z" fill="#8D8D9D"/>
</svg>
