<svg width="17" height="16" viewBox="0 0 17 16" fill="none" xmlns="http://www.w3.org/2000/svg">
<path fill-rule="evenodd" clip-rule="evenodd" d="M6.50001 7.33333C7.97068 7.33333 9.16668 6.13733 9.16668 4.66667C9.16668 3.196 7.97068 2 6.50001 2C5.02934 2 3.83334 3.196 3.83334 4.66667C3.83334 6.13733 5.02934 7.33333 6.50001 7.33333ZM11.8333 8.66667C12.936 8.66667 13.8333 7.76933 13.8333 6.66667C13.8333 5.564 12.936 4.66667 11.8333 4.66667C10.7307 4.66667 9.83334 5.564 9.83334 6.66667C9.83334 7.76933 10.7307 8.66667 11.8333 8.66667ZM15.1667 12.6667C15.1667 13.0347 14.8687 13.3333 14.5 13.3333H11.1667C11.1667 13.7013 10.8687 14 10.5 14H2.50001C2.13134 14 1.83334 13.7013 1.83334 13.3333C1.83334 10.76 3.92734 8.66667 6.50001 8.66667C7.78468 8.66667 8.94868 9.18867 9.79334 10.0307C10.3727 9.58267 11.086 9.33333 11.8333 9.33333C13.6713 9.33333 15.1667 10.8287 15.1667 12.6667Z" fill="#8D8D9D"/>
<mask id="mask0" mask-type="alpha" maskUnits="userSpaceOnUse" x="1" y="2" width="15" height="12">
<path fill-rule="evenodd" clip-rule="evenodd" d="M6.50001 7.33333C7.97068 7.33333 9.16668 6.13733 9.16668 4.66667C9.16668 3.196 7.97068 2 6.50001 2C5.02934 2 3.83334 3.196 3.83334 4.66667C3.83334 6.13733 5.02934 7.33333 6.50001 7.33333ZM11.8333 8.66667C12.936 8.66667 13.8333 7.76933 13.8333 6.66667C13.8333 5.564 12.936 4.66667 11.8333 4.66667C10.7307 4.66667 9.83334 5.564 9.83334 6.66667C9.83334 7.76933 10.7307 8.66667 11.8333 8.66667ZM15.1667 12.6667C15.1667 13.0347 14.8687 13.3333 14.5 13.3333H11.1667C11.1667 13.7013 10.8687 14 10.5 14H2.50001C2.13134 14 1.83334 13.7013 1.83334 13.3333C1.83334 10.76 3.92734 8.66667 6.50001 8.66667C7.78468 8.66667 8.94868 9.18867 9.79334 10.0307C10.3727 9.58267 11.086 9.33333 11.8333 9.33333C13.6713 9.33333 15.1667 10.8287 15.1667 12.6667Z" fill="white"/>
</mask>
<g mask="url(#mask0)">
<rect x="0.5" width="16" height="16" fill="#8D8D9D"/>
</g>
</svg>
