<svg width="17" height="16" viewBox="0 0 17 16" fill="none" xmlns="http://www.w3.org/2000/svg">
<path fill-rule="evenodd" clip-rule="evenodd" d="M12.2077 14.0004C12.1024 14.0004 11.9964 13.9758 11.8991 13.9251L8.49973 12.1491L5.10107 13.9251C4.87573 14.0418 4.60373 14.0218 4.39973 13.8724C4.1944 13.7231 4.0924 13.4704 4.13573 13.2204L4.78307 9.46844L2.0364 6.81177C1.85373 6.6351 1.78773 6.36977 1.86573 6.1271C1.94373 5.88577 2.1524 5.7091 2.4044 5.6731L6.2044 5.1211L7.90307 1.70377C8.1284 1.25044 8.87173 1.25044 9.09707 1.70377L10.7957 5.1211L14.5957 5.6731C14.8477 5.7091 15.0564 5.88577 15.1344 6.1271C15.2124 6.36977 15.1464 6.6351 14.9637 6.81177L12.2171 9.46844L12.8644 13.2204C12.9077 13.4704 12.8051 13.7231 12.6004 13.8724C12.4844 13.9578 12.3464 14.0004 12.2077 14.0004Z" fill="#8D8D9D"/>
<mask id="mask0" mask-type="alpha" maskUnits="userSpaceOnUse" x="1" y="1" width="15" height="14">
<path fill-rule="evenodd" clip-rule="evenodd" d="M12.2077 14.0004C12.1024 14.0004 11.9964 13.9758 11.8991 13.9251L8.49973 12.1491L5.10107 13.9251C4.87573 14.0418 4.60373 14.0218 4.39973 13.8724C4.1944 13.7231 4.0924 13.4704 4.13573 13.2204L4.78307 9.46844L2.0364 6.81177C1.85373 6.6351 1.78773 6.36977 1.86573 6.1271C1.94373 5.88577 2.1524 5.7091 2.4044 5.6731L6.2044 5.1211L7.90307 1.70377C8.1284 1.25044 8.87173 1.25044 9.09707 1.70377L10.7957 5.1211L14.5957 5.6731C14.8477 5.7091 15.0564 5.88577 15.1344 6.1271C15.2124 6.36977 15.1464 6.6351 14.9637 6.81177L12.2171 9.46844L12.8644 13.2204C12.9077 13.4704 12.8051 13.7231 12.6004 13.8724C12.4844 13.9578 12.3464 14.0004 12.2077 14.0004Z" fill="white"/>
</mask>
<g mask="url(#mask0)">
<rect x="0.5" width="16" height="16" fill="#8D8D9D"/>
</g>
</svg>
